<svg width="24px" height="38px" xmlns="http://www.w3.org/2000/svg" xmlns:xlink="http://www.w3.org/1999/xlink" viewBox="0 0 24 38">
<path d="M22,26.6l-2.9-11.3a2.78,2.78,0,0,0-2.4-2l-0.7-.5a6.82,6.82,0,0,0,2.2-5,6.9,6.9,0,0,0-13.8,0,7,7,0,0,0,2.2,5.1l-0.6.5a2.55,2.55,0,0,0-2.3,2s-3,11.1-3,11.2v0.1a1.58,1.58,0,0,0,1,1.9l1.2,0.4a1.63,1.63,0,0,0,1.9-.9l0.8-2,0.2,12.8h11.3l0.2-12.6,0.7,1.8a1.54,1.54,0,0,0,1.5,1,1.09,1.09,0,0,0,.5-0.1l1.3-.4a1.85,1.85,0,0,0,.7-2h0Zm-1.2.9-1.2.4a0.61,0.61,0,0,1-.7-0.3l-2.5-6.6-0.2,16.8h-9.4L6.6,21l-2.7,6.7a0.52,0.52,0,0,1-.66.31h0l-1.1-.4a0.52,0.52,0,0,1-.31-0.66v0l3.1-11.3a1.69,1.69,0,0,1,1.5-1.3h0.2l1-.9h2.3a5.9,5.9,0,1,1,3.2,0h2.3l1.1,0.9h0.2a1.71,1.71,0,0,1,1.6,1.2l2.9,11.3a0.84,0.84,0,0,1-.4.7h0Z" style="fill:#333;fill-opacity:0.2"/>"
</svg>

