<svg width="40px" height="50px" xmlns="http://www.w3.org/2000/svg" xmlns:xlink="http://www.w3.org/1999/xlink" viewBox="0 0 40 50">
<path d="M34.00,-30.40l-2.9-11.3a2.78,2.78,0,0,0-2.4-2l-0.7-.5a6.82,6.82,0,0,0,2.2-5,6.9,6.9,0,0,0-13.8,0,7,7,0,0,0,2.2,5.1l-0.6.5a2.55,2.55,0,0,0-2.3,2s-3,11.1-3,11.2v0.1a1.58,1.58,0,0,0,1,1.9l1.2,0.4a1.63,1.63,0,0,0,1.9-.9l0.8-2,0.2,12.8h11.3l0.2-12.6,0.7,1.8a1.54,1.54,0,0,0,1.5,1,1.09,1.09,0,0,0,.5-0.1l1.3-.4a1.85,1.85,0,0,0,.7-2h0Zm-1.2.9-1.2.4a0.61,0.61,0,0,1-.7-0.3l-2.5-6.6-0.2,16.8h-9.4L18.60,-36.00l-2.7,6.7a0.52,0.52,0,0,1-.66.31h0l-1.1-.4a0.52,0.52,0,0,1-.31-0.66v0l3.1-11.3a1.69,1.69,0,0,1,1.5-1.3h0.2l1-.9h2.3a5.9,5.9,0,1,1,3.2,0h2.3l1.1,0.9h0.2a1.71,1.71,0,0,1,1.6,1.2l2.9,11.3a0.84,0.84,0,0,1-.4.7h0Zm1.2,59.1-2.9-11.3a2.78,2.78,0,0,0-2.4-2l-0.7-.5a6.82,6.82,0,0,0,2.2-5,6.9,6.9,0,0,0-13.8,0,7,7,0,0,0,2.2,5.1l-0.6.5a2.55,2.55,0,0,0-2.3,2s-3,11.1-3,11.2v0.1a1.58,1.58,0,0,0,1,1.9l1.2,0.4a1.63,1.63,0,0,0,1.9-.9l0.8-2,0.2,12.8h11.3l0.2-12.6,0.7,1.8a1.54,1.54,0,0,0,1.5,1,1.09,1.09,0,0,0,.5-0.1l1.3-.4a1.85,1.85,0,0,0,.7-2h0Zm-1.2.9-1.2.4a0.61,0.61,0,0,1-.7-0.3l-2.5-6.6-0.2,16.8h-9.4L18.60,24.00l-2.7,6.7a0.52,0.52,0,0,1-.66.31h0l-1.1-.4a0.52,0.52,0,0,1-.31-0.66v0l3.1-11.3a1.69,1.69,0,0,1,1.5-1.3h0.2l1-.9h2.3a5.9,5.9,0,1,1,3.2,0h2.3l1.1,0.9h0.2a1.71,1.71,0,0,1,1.6,1.2l2.9,11.3a0.84,0.84,0,0,1-.4.7h0Z" style="fill:#333;fill-opacity:0.2"></path>
<path d="M15.40,38.80h-4a1.64,1.64,0,0,1-1.4-1.1l-3.1-8a0.9,0.9,0,0,1-.5.1l-1.4.1a1.62,1.62,0,0,1-1.6-1.4l-1.1-13.1,1.6-1.3a6.87,6.87,0,0,1-3-4.6A7.14,7.14 0 0,1 2 4a7.6,7.6,0,0,1,4.7-3.1,7.14,7.14,0,0,1,5.5,1.1,7.28,7.28,0,0,1,2.3,9.6l2.1-.1,0.1,1c0,0.2.1,0.5,0.1,0.8a2.41,2.41,0,0,1,1,1s1.9,3.2,2.8,4.9c0.7,1.2,2.1,4.2,2.8,5.9a2.1,2.1,0,0,1-.8,2.6l-0.6.4a1.63,1.63,0,0,1-1.5.2l-0.6-.3a8.93,8.93,0,0,0,.5,1.3,7.91,7.91,0,0,0,1.8,2.6l0.6,0.3v4.6l-4.5-.1a7.32,7.32,0,0,1-2.5-1.5l-0.4,3.6h0Zm-10-19.2,3.5,9.8,2.9,7.5h1.6V35l-1.9-9.4,3.1,5.4a8.24,8.24,0,0,0,3.8,3.8h2.1v-1.4a14,14,0,0,1-2.2-3.1,44.55,44.55,0,0,1-2.2-8l-1.3-6.3,3.2,5.6c0.6,1.1,2.1,3.6,2.8,4.9l0.6-.4c-0.8-1.6-2.1-4.6-2.8-5.8-0.9-1.7-2.8-4.9-2.8-4.9a0.54,0.54,0,0,0-.4-0.3l-0.7-.1-0.1-.7a4.33,4.33,0,0,0-.1-0.5l-5.3.3,2.2-1.9a4.3,4.3,0,0,0,.9-1,5.17,5.17,0,0,0,.8-4,5.67,5.67,0,0,0-2.2-3.4,5.09,5.09,0,0,0-4-.8,5.67,5.67,0,0,0-3.4,2.2,5.17,5.17,0,0,0-.8,4,5.67,5.67,0,0,0,2.2,3.4,3.13,3.13,0,0,0,1,.5l1.6,0.6-3.2,2.6,1,11.5h0.4l-0.3-8.2h0Z" style="fill:#333"></path>
<path d="M3.35,15.90l1.1,12.5a0.39,0.39,0,0,0,.36.42l0.14,0,1.4-.1a0.66,0.66,0,0,0,.5-0.4l-0.2-3.8-3.3-8.6h0Z" style="fill:#fdbf2d"></path>
<path d="M5.20,28.80l1.1-.1a0.66,0.66,0,0,0,.5-0.4l-0.2-3.8-1.2-3.1Z" style="fill:#ce592b;fill-opacity:0.25"></path>
<path d="M21.40,35.70l-3.8-1.2-2.7-7.8L12.00,15.5l3.4-2.9c0.2,2.4,2.2,14.1,3.7,17.1,0,0,1.3,2.6,2.3,3.1v2.9m-8.4-8.1-2-.3,2.5,10.1,0.9,0.4v-2.9" style="fill:#e5892b"></path>
<path d="M17.80,25.40c-0.4-1.5-.7-3.1-1.1-4.8-0.1-.4-0.1-0.7-0.2-1.1l-1.1-2-1.7-1.6s0.9,5,2.4,7.1a19.12,19.12,0,0,0,1.7,2.4h0Z" style="fill:#cf572e;opacity:0.6;isolation:isolate"></path>
<path d="M14.40,37.80h-3a0.43,0.43,0,0,1-.4-0.4l-3-7.8-1.7-4.8-3-9,8.9-.4s2.9,11.3,4.3,14.4c1.9,4.1,3.1,4.7,5,5.8h-3.2s-4.1-1.2-5.9-7.7a0.59,0.59,0,0,0-.6-0.4,0.62,0.62,0,0,0-.3.7s0.5,2.4.9,3.6a34.87,34.87,0,0,0,2,6h0Z" style="fill:#fdbf2d"></path>
<path d="M15.40,12.70l-3.3,2.9-8.9.4,3.3-2.7" style="fill:#ce592b"></path>
<path d="M9.10,21.10l1.4-6.2-5.9.5" style="fill:#cf572e;opacity:0.6;isolation:isolate"></path>
<path d="M12.00,13.5a4.75,4.75,0,0,1-2.6,1.1c-1.5.3-2.9,0.2-2.9,0s1.1-.6,2.7-1" style="fill:#bb3d19"></path>
<circle cx="7.92" cy="8.19" r="6.3" style="fill:#fdbf2d"></circle>
<path d="M4.70,13.60a6.21,6.21,0,0,0,8.4-1.9v-0.1a8.89,8.89,0,0,1-8.4,2h0Z" style="fill:#ce592b;fill-opacity:0.25"></path>
<path d="M21.20,27.20l0.6-.4a1.09,1.09,0,0,0,.4-1.3c-0.7-1.5-2.1-4.6-2.8-5.8-0.9-1.7-2.8-4.9-2.8-4.9a1.6,1.6,0,0,0-2.17-.65l-0.23.15a1.68,1.68,0,0,0-.4,2.1s2.3,3.9,3.1,5.3c0.6,1,2.1,3.7,2.9,5.1a0.94,0.94,0,0,0,1.24.49l0.16-.09h0Z" style="fill:#fdbf2d"></path>
<path d="M19.40,19.80c-0.9-1.7-2.8-4.9-2.8-4.9a1.6,1.6,0,0,0-2.17-.65l-0.23.15-0.3.3c1.1,1.5,2.9,3.8,3.9,5.4,1.1,1.8,2.9,5,3.8,6.7l0.1-.1a1.09,1.09,0,0,0,.4-1.3,57.67,57.67,0,0,0-2.7-5.6h0Z" style="fill:#ce592b;fill-opacity:0.25"></path>
</svg>
